<!-- <svg xmlns="http://www.w3.org/2000/svg" x="0px" y="0px" width="48" height="48" viewBox="0 0 48 48">
<path fill="#0288D1" d="M42,37c0,2.762-2.238,5-5,5H11c-2.761,0-5-2.238-5-5V11c0-2.762,2.239-5,5-5h26c2.762,0,5,2.238,5,5V37z"></path><path fill="#FFF" d="M12 19H17V36H12zM14.485 17h-.028C12.965 17 12 15.888 12 14.499 12 13.08 12.995 12 14.514 12c1.521 0 2.458 1.08 2.486 2.499C17 15.887 16.035 17 14.485 17zM36 36h-5v-9.099c0-2.198-1.225-3.698-3.192-3.698-1.501 0-2.313 1.012-2.707 1.99C24.957 25.543 25 26.511 25 27v9h-5V19h5v2.616C25.721 20.5 26.85 19 29.738 19c3.578 0 6.261 2.25 6.261 7.274L36 36 36 36z"></path>
</svg> -->

<svg width="256" height="256" xmlns="http://www.w3.org/2000/svg" preserveAspectRatio="xMidYMid" viewBox="0 0 256 256"><path d="M218.123 218.127h-37.931v-59.403c0-14.165-.253-32.4-19.728-32.4-19.756 0-22.779 15.434-22.779 31.369v60.43h-37.93V95.967h36.413v16.694h.51a39.907 39.907 0 0 1 35.928-19.733c38.445 0 45.533 25.288 45.533 58.186l-.016 67.013ZM56.955 79.27c-12.157.002-22.014-9.852-22.016-22.009-.002-12.157 9.851-22.014 22.008-22.016 12.157-.003 22.014 9.851 22.016 22.008A22.013 22.013 0 0 1 56.955 79.27m18.966 138.858H37.95V95.967h37.97v122.16ZM237.033.018H18.89C8.58-.098.125 8.161-.001 18.471v219.053c.122 10.315 8.576 18.582 18.89 18.474h218.144c10.336.128 18.823-8.139 18.966-18.474V18.454c-.147-10.33-8.635-18.588-18.966-18.453" fill="#0A66C2"/></svg>
